<?xml version="1.0" encoding="utf-8"?>
<!-- Generator: Adobe Illustrator 27.0.0, SVG Export Plug-In . SVG Version: 6.00 Build 0)  -->
<svg version="1.1" id="Layer_1" xmlns="http://www.w3.org/2000/svg" xmlns:xlink="http://www.w3.org/1999/xlink" x="0px" y="0px"
	 viewBox="0 0 200 200" style="enable-background:new 0 0 200 200;" xml:space="preserve">
<style type="text/css">
	.st0{fill:#FFFFFF;}
	.st1{fill:url(#SVGID_1_);}
</style>
<path class="st0" d="M146.24,179.86h-89.7c-17.29,0-31.31-14.02-31.31-31.31V53.4c0-17.29,14.02-31.31,31.31-31.31h89.7
	c17.29,0,31.31,14.02,31.31,31.31v95.15C177.56,165.84,163.54,179.86,146.24,179.86z"/>
<g>
	
		<linearGradient id="SVGID_1_" gradientUnits="userSpaceOnUse" x1="68.01" y1="98.67" x2="132.79" y2="98.67" gradientTransform="matrix(1 0 0 -1 0 200)">
		<stop  offset="0" style="stop-color:#1677F1"/>
		<stop  offset="0.1756" style="stop-color:#186EE9"/>
		<stop  offset="0.4613" style="stop-color:#1E56D3"/>
		<stop  offset="0.8194" style="stop-color:#262EB0"/>
		<stop  offset="1" style="stop-color:#2B189C"/>
	</linearGradient>
	<path class="st1" d="M128.54,108.43l3.36-21.89h-21v-14.2c0-5.99,2.93-11.82,12.34-11.82h9.55V41.88c0,0-8.66-1.48-16.95-1.48
		c-17.29,0-28.6,10.48-28.6,29.46v16.68H68.01v21.89h19.22v52.91c3.85,0.6,7.81,0.92,11.83,0.92s7.98-0.32,11.83-0.92v-52.91
		C110.89,108.43,128.54,108.43,128.54,108.43z"/>
</g>
</svg>
