<?xml version="1.0" encoding="utf-8"?>
<!-- Generator: Adobe Illustrator 27.0.0, SVG Export Plug-In . SVG Version: 6.00 Build 0)  -->
<svg version="1.1" id="Layer_1" xmlns="http://www.w3.org/2000/svg" xmlns:xlink="http://www.w3.org/1999/xlink" x="0px" y="0px"
	 viewBox="0 0 200 200" style="enable-background:new 0 0 200 200;" xml:space="preserve">
<style type="text/css">
	.st0{fill-rule:evenodd;clip-rule:evenodd;fill:#F8F8F8;}
	.st1{fill:#F8F8F8;}
</style>
<g id="XMLID_00000106858372937877106770000016481455737719017142_">
	<g>
		<path id="XMLID_00000000908223518075056050000007895484420820980671_" class="st0" d="M106.66,84.25l0-7.14
			c0-3.43,2.29-4.25,3.96-4.25c1.61,0,10.1,0,10.1,0l0-15.25l-13.91,0c-15.48,0-18.94,11.29-18.94,18.62l0,8.01l-8.98,0l0,10.76
			v7.04l9.08,0c0,20.22,0,44.48,0,44.48l18.02,0c0,0,0-24.61,0-44.48l13.33,0l0.59-7l1.07-10.81L106.66,84.25z"/>
	</g>
</g>
<g id="XMLID_00000016046011346284830320000002677582107773809295_">
	<g>
		<path id="XMLID_00000044174461518571936870000008288482365550827168_" class="st1" d="M99.92,193.68
			c-51.11,0-92.68-41.09-92.68-91.6s41.58-91.6,92.68-91.6c51.11,0,92.68,41.09,92.68,91.6C192.6,152.59,151.03,193.68,99.92,193.68
			z M99.92,21.75c-44.82,0-81.29,36.04-81.29,80.34c0,44.3,36.47,80.34,81.29,80.34c44.82,0,81.29-36.04,81.29-80.34
			S144.74,21.75,99.92,21.75z"/>
	</g>
</g>
</svg>
