<?xml version="1.0" encoding="utf-8"?>
<!-- Generator: Adobe Illustrator 27.0.0, SVG Export Plug-In . SVG Version: 6.00 Build 0)  -->
<svg version="1.1" id="Layer_1" xmlns="http://www.w3.org/2000/svg" xmlns:xlink="http://www.w3.org/1999/xlink" x="0px" y="0px"
	 viewBox="0 0 200 200" style="enable-background:new 0 0 200 200;" xml:space="preserve">
<style type="text/css">
	.st0{fill:#F9F9F9;}
</style>
<g id="XMLID_00000016767748870010851240000001158722159409308564_">
	<g id="XMLID_00000119088308811908321420000009670135483062863781_">
		<g>
			<g id="XMLID_00000009564254557870813280000004902564023330067352_">
				<path id="XMLID_00000070108927373104655420000006450647677611062432_" class="st0" d="M102.48,68.3
					c-16.06,0-29.12,12.91-29.12,28.78s13.07,28.78,29.12,28.78c16.06,0,29.12-12.91,29.12-28.78S118.53,68.3,102.48,68.3z
					 M123.93,97.08c0,11.69-9.62,21.2-21.45,21.2c-11.8,0-21.4-9.51-21.4-21.2c0-11.69,9.6-21.2,21.4-21.2
					C114.3,75.88,123.93,85.39,123.93,97.08z"/>
			</g>
			<g id="XMLID_00000001635870953973226450000014001286148509766036_">
				<path id="XMLID_00000032622802211642657330000012211538176940687533_" class="st0" d="M130.15,64.52
					c-3.01,0-5.45,2.42-5.45,5.39c0,2.97,2.45,5.39,5.45,5.39c3.01,0,5.46-2.42,5.46-5.39C135.61,66.94,133.16,64.52,130.15,64.52z"
					/>
			</g>
			<g id="XMLID_00000163760088516639154010000006224810702669499796_">
				<path id="XMLID_00000160177687286961795210000004356861039323478683_" class="st0" d="M125.57,52.97l-46.13,0
					c-11.9,0-21.59,9.57-21.59,21.34l0,45.59c0,11.76,9.69,21.33,21.59,21.33l46.13,0c11.9,0,21.59-9.57,21.59-21.33l0-45.59
					C147.15,62.54,137.47,52.97,125.57,52.97z M140.16,74.31l0,45.59c0,7.95-6.55,14.42-14.59,14.42l-46.13,0
					c-8.05,0-14.59-6.47-14.59-14.42l0-45.59c0-7.95,6.55-14.42,14.59-14.42l46.13,0C133.61,59.89,140.16,66.36,140.16,74.31z"/>
			</g>
		</g>
	</g>
	<g id="XMLID_00000078042766606569356870000000114440651141040019_">
		<g>
			<path id="XMLID_00000137841248101686035760000014683189563713781944_" class="st0" d="M100.53,188.7
				c-51.11,0-92.68-41.09-92.68-91.6S49.43,5.5,100.53,5.5s92.68,41.09,92.68,91.6S151.64,188.7,100.53,188.7z M100.53,16.77
				c-44.82,0-81.29,36.04-81.29,80.34s36.47,80.34,81.29,80.34c44.82,0,81.29-36.04,81.29-80.34
				C181.82,52.81,145.36,16.77,100.53,16.77z"/>
		</g>
	</g>
</g>
</svg>
